<mxfile host="app.diagrams.net" modified="2021-04-20T13:49:46.287Z" agent="5.0 (Windows NT 10.0; Win64; x64) AppleWebKit/537.36 (KHTML, like Gecko) Chrome/88.0.4324.182 Safari/537.36" etag="xRvyMEGW6sxPMX1IU85g" version="14.6.3" type="github">
  <diagram id="C5RBs43oDa-KdzZeNtuy" name="Page-1">
    <mxGraphModel dx="652" dy="318" grid="1" gridSize="10" guides="1" tooltips="1" connect="1" arrows="1" fold="1" page="1" pageScale="1" pageWidth="827" pageHeight="1169" math="0" shadow="0">
      <root>
        <mxCell id="WIyWlLk6GJQsqaUBKTNV-0" />
        <mxCell id="WIyWlLk6GJQsqaUBKTNV-1" parent="WIyWlLk6GJQsqaUBKTNV-0" />
        <mxCell id="HuKOBxeY3gApm7Wj72km-1" value="" style="whiteSpace=wrap;html=1;aspect=fixed;" vertex="1" parent="WIyWlLk6GJQsqaUBKTNV-1">
          <mxGeometry x="220" y="400" width="240" height="240" as="geometry" />
        </mxCell>
        <object label="普通用户" id="HuKOBxeY3gApm7Wj72km-4">
          <mxCell style="shape=umlActor;verticalLabelPosition=bottom;verticalAlign=top;html=1;outlineConnect=0;" vertex="1" parent="WIyWlLk6GJQsqaUBKTNV-1">
            <mxGeometry x="130" y="490" width="30" height="60" as="geometry" />
          </mxCell>
        </object>
        <mxCell id="HuKOBxeY3gApm7Wj72km-12" style="rounded=0;orthogonalLoop=1;jettySize=auto;html=1;exitX=1;exitY=0;exitDx=0;exitDy=0;entryX=0;entryY=0.5;entryDx=0;entryDy=0;" edge="1" parent="WIyWlLk6GJQsqaUBKTNV-1" source="HuKOBxeY3gApm7Wj72km-7" target="HuKOBxeY3gApm7Wj72km-8">
          <mxGeometry relative="1" as="geometry" />
        </mxCell>
        <mxCell id="HuKOBxeY3gApm7Wj72km-13" value="《包含》" style="edgeLabel;html=1;align=center;verticalAlign=middle;resizable=0;points=[];labelBackgroundColor=none;" vertex="1" connectable="0" parent="HuKOBxeY3gApm7Wj72km-12">
          <mxGeometry x="-0.4098" relative="1" as="geometry">
            <mxPoint x="9" y="-8" as="offset" />
          </mxGeometry>
        </mxCell>
        <mxCell id="HuKOBxeY3gApm7Wj72km-14" style="edgeStyle=none;rounded=0;orthogonalLoop=1;jettySize=auto;html=1;exitX=1;exitY=1;exitDx=0;exitDy=0;entryX=0;entryY=0.5;entryDx=0;entryDy=0;" edge="1" parent="WIyWlLk6GJQsqaUBKTNV-1" source="HuKOBxeY3gApm7Wj72km-7" target="HuKOBxeY3gApm7Wj72km-9">
          <mxGeometry relative="1" as="geometry" />
        </mxCell>
        <mxCell id="HuKOBxeY3gApm7Wj72km-7" value="应用管理" style="ellipse;whiteSpace=wrap;html=1;" vertex="1" parent="WIyWlLk6GJQsqaUBKTNV-1">
          <mxGeometry x="240" y="500" width="80" height="40" as="geometry" />
        </mxCell>
        <mxCell id="HuKOBxeY3gApm7Wj72km-8" value="应用创建申请" style="ellipse;whiteSpace=wrap;html=1;" vertex="1" parent="WIyWlLk6GJQsqaUBKTNV-1">
          <mxGeometry x="370" y="450" width="80" height="40" as="geometry" />
        </mxCell>
        <mxCell id="HuKOBxeY3gApm7Wj72km-9" value="加组申请" style="ellipse;whiteSpace=wrap;html=1;" vertex="1" parent="WIyWlLk6GJQsqaUBKTNV-1">
          <mxGeometry x="370" y="545" width="80" height="40" as="geometry" />
        </mxCell>
        <mxCell id="HuKOBxeY3gApm7Wj72km-11" value="" style="endArrow=none;html=1;entryX=0;entryY=0.5;entryDx=0;entryDy=0;" edge="1" parent="WIyWlLk6GJQsqaUBKTNV-1" target="HuKOBxeY3gApm7Wj72km-7">
          <mxGeometry width="50" height="50" relative="1" as="geometry">
            <mxPoint x="160" y="520" as="sourcePoint" />
            <mxPoint x="210" y="470" as="targetPoint" />
          </mxGeometry>
        </mxCell>
        <mxCell id="HuKOBxeY3gApm7Wj72km-15" value="《包含》" style="edgeLabel;html=1;align=center;verticalAlign=middle;resizable=0;points=[];labelBackgroundColor=none;" vertex="1" connectable="0" parent="WIyWlLk6GJQsqaUBKTNV-1">
          <mxGeometry x="345.2978012768981" y="497.3917039696837" as="geometry">
            <mxPoint x="-10" y="51" as="offset" />
          </mxGeometry>
        </mxCell>
      </root>
    </mxGraphModel>
  </diagram>
</mxfile>
